<mxfile host="65bd71144e" modified="2021-01-24T10:41:22.273Z" agent="5.0 (Windows NT 10.0; Win64; x64) AppleWebKit/537.36 (KHTML, like Gecko) Code/1.52.1 Chrome/83.0.4103.122 Electron/9.3.5 Safari/537.36" etag="iswLyGQe1pchKbzHgKYr" version="13.10.0" type="embed" pages="3">
    <diagram id="yCAYo7vn6bNdRHoJTmrq" name="UseCases">
        <mxGraphModel dx="1286" dy="605" grid="1" gridSize="10" guides="1" tooltips="1" connect="1" arrows="1" fold="1" page="1" pageScale="1" pageWidth="1169" pageHeight="827" background="#fffffff" math="0" shadow="0">
            <root>
                <mxCell id="0"/>
                <mxCell id="1" parent="0"/>
                <mxCell id="sx9_2WNkkRCyzuz7CPDC-1" value="TranslationMemory" style="shape=umlFrame;whiteSpace=wrap;html=1;width=150;height=50;fillColor=#A8DADC;strokeColor=#457B9D;fontColor=#1D3557;" parent="1" vertex="1">
                    <mxGeometry x="320" y="56.5" width="650" height="1173.5" as="geometry"/>
                </mxCell>
                <mxCell id="sx9_2WNkkRCyzuz7CPDC-12" style="edgeStyle=orthogonalEdgeStyle;orthogonalLoop=1;jettySize=auto;html=1;entryX=0;entryY=0.5;entryDx=0;entryDy=0;curved=1;labelBackgroundColor=#F1FAEE;strokeColor=#457B9D;fontColor=#1D3557;" parent="1" source="sx9_2WNkkRCyzuz7CPDC-2" target="sx9_2WNkkRCyzuz7CPDC-4" edge="1">
                    <mxGeometry relative="1" as="geometry"/>
                </mxCell>
                <mxCell id="sx9_2WNkkRCyzuz7CPDC-13" style="edgeStyle=orthogonalEdgeStyle;orthogonalLoop=1;jettySize=auto;html=1;entryX=0;entryY=0.5;entryDx=0;entryDy=0;curved=1;labelBackgroundColor=#F1FAEE;strokeColor=#457B9D;fontColor=#1D3557;" parent="1" source="sx9_2WNkkRCyzuz7CPDC-2" target="sx9_2WNkkRCyzuz7CPDC-6" edge="1">
                    <mxGeometry relative="1" as="geometry"/>
                </mxCell>
                <mxCell id="sx9_2WNkkRCyzuz7CPDC-14" style="edgeStyle=orthogonalEdgeStyle;orthogonalLoop=1;jettySize=auto;html=1;entryX=0;entryY=0.5;entryDx=0;entryDy=0;curved=1;labelBackgroundColor=#F1FAEE;strokeColor=#457B9D;fontColor=#1D3557;" parent="1" source="sx9_2WNkkRCyzuz7CPDC-2" target="sx9_2WNkkRCyzuz7CPDC-5" edge="1">
                    <mxGeometry relative="1" as="geometry"/>
                </mxCell>
                <mxCell id="sx9_2WNkkRCyzuz7CPDC-2" value="User" style="shape=umlActor;verticalLabelPosition=bottom;verticalAlign=top;html=1;fillColor=#A8DADC;strokeColor=#457B9D;fontColor=#1D3557;" parent="1" vertex="1">
                    <mxGeometry x="260" y="220" width="40" height="80" as="geometry"/>
                </mxCell>
                <mxCell id="sx9_2WNkkRCyzuz7CPDC-4" value="Nach Wörtern suchen" style="ellipse;whiteSpace=wrap;html=1;fillColor=#A8DADC;strokeColor=#457B9D;fontColor=#1D3557;" parent="1" vertex="1">
                    <mxGeometry x="400" y="120" width="120" height="80" as="geometry"/>
                </mxCell>
                <mxCell id="sx9_2WNkkRCyzuz7CPDC-5" value="Wörter anlegen" style="ellipse;whiteSpace=wrap;html=1;fillColor=#A8DADC;strokeColor=#457B9D;fontColor=#1D3557;" parent="1" vertex="1">
                    <mxGeometry x="400" y="320" width="120" height="80" as="geometry"/>
                </mxCell>
                <mxCell id="sx9_2WNkkRCyzuz7CPDC-6" value="Einsicht über angelegte Wörter" style="ellipse;whiteSpace=wrap;html=1;fillColor=#A8DADC;strokeColor=#457B9D;fontColor=#1D3557;" parent="1" vertex="1">
                    <mxGeometry x="400" y="220" width="120" height="80" as="geometry"/>
                </mxCell>
                <mxCell id="sx9_2WNkkRCyzuz7CPDC-7" value="Einsicht über Anzahl aller Wörter in DB" style="ellipse;whiteSpace=wrap;html=1;fillColor=#A8DADC;strokeColor=#457B9D;fontColor=#1D3557;" parent="1" vertex="1">
                    <mxGeometry x="640" y="180" width="120" height="80" as="geometry"/>
                </mxCell>
                <mxCell id="sx9_2WNkkRCyzuz7CPDC-9" value="Einsicht über Vollständigkeit der Übersetzung aller Wörter" style="ellipse;whiteSpace=wrap;html=1;fillColor=#A8DADC;strokeColor=#457B9D;fontColor=#1D3557;" parent="1" vertex="1">
                    <mxGeometry x="640" y="270" width="120" height="80" as="geometry"/>
                </mxCell>
                <mxCell id="sx9_2WNkkRCyzuz7CPDC-31" style="edgeStyle=orthogonalEdgeStyle;orthogonalLoop=1;jettySize=auto;html=1;entryX=0;entryY=0.5;entryDx=0;entryDy=0;curved=1;labelBackgroundColor=#F1FAEE;strokeColor=#457B9D;fontColor=#1D3557;" parent="1" source="sx9_2WNkkRCyzuz7CPDC-20" target="sx9_2WNkkRCyzuz7CPDC-30" edge="1">
                    <mxGeometry relative="1" as="geometry"/>
                </mxCell>
                <mxCell id="sx9_2WNkkRCyzuz7CPDC-20" value="Übersetzer" style="shape=umlActor;verticalLabelPosition=bottom;verticalAlign=top;html=1;fillColor=#A8DADC;strokeColor=#457B9D;fontColor=#1D3557;" parent="1" vertex="1">
                    <mxGeometry x="260" y="570" width="40" height="80" as="geometry"/>
                </mxCell>
                <mxCell id="sx9_2WNkkRCyzuz7CPDC-22" value="Auflistung von unvollständig übersetzten Wörtern" style="ellipse;whiteSpace=wrap;html=1;fillColor=#A8DADC;strokeColor=#457B9D;fontColor=#1D3557;" parent="1" vertex="1">
                    <mxGeometry x="600" y="470" width="120" height="80" as="geometry"/>
                </mxCell>
                <mxCell id="sx9_2WNkkRCyzuz7CPDC-23" value="Einpflege von Übersetzung der einzelnen Wörter" style="ellipse;whiteSpace=wrap;html=1;fillColor=#A8DADC;strokeColor=#457B9D;fontColor=#1D3557;" parent="1" vertex="1">
                    <mxGeometry x="610" y="570" width="120" height="80" as="geometry"/>
                </mxCell>
                <mxCell id="sx9_2WNkkRCyzuz7CPDC-24" value="Anzeige über eingepflegete Übersetzungen" style="ellipse;whiteSpace=wrap;html=1;fillColor=#A8DADC;strokeColor=#457B9D;fontColor=#1D3557;" parent="1" vertex="1">
                    <mxGeometry x="600" y="670" width="120" height="80" as="geometry"/>
                </mxCell>
                <mxCell id="sx9_2WNkkRCyzuz7CPDC-25" value="" style="endArrow=block;dashed=1;endFill=0;endSize=12;html=1;entryX=1;entryY=0.5;entryDx=0;entryDy=0;exitX=0;exitY=0.5;exitDx=0;exitDy=0;curved=1;labelBackgroundColor=#F1FAEE;strokeColor=#457B9D;fontColor=#1D3557;" parent="1" source="sx9_2WNkkRCyzuz7CPDC-9" target="sx9_2WNkkRCyzuz7CPDC-6" edge="1">
                    <mxGeometry width="160" relative="1" as="geometry">
                        <mxPoint x="530" y="280" as="sourcePoint"/>
                        <mxPoint x="690" y="280" as="targetPoint"/>
                    </mxGeometry>
                </mxCell>
                <mxCell id="sx9_2WNkkRCyzuz7CPDC-28" value="Extends" style="edgeLabel;html=1;align=center;verticalAlign=middle;resizable=0;points=[];labelBackgroundColor=#F1FAEE;fontColor=#1D3557;" parent="sx9_2WNkkRCyzuz7CPDC-25" vertex="1" connectable="0">
                    <mxGeometry x="-0.1998" y="-1" relative="1" as="geometry">
                        <mxPoint as="offset"/>
                    </mxGeometry>
                </mxCell>
                <mxCell id="sx9_2WNkkRCyzuz7CPDC-26" value="" style="endArrow=block;dashed=1;endFill=0;endSize=12;html=1;exitX=0;exitY=0.5;exitDx=0;exitDy=0;curved=1;labelBackgroundColor=#F1FAEE;strokeColor=#457B9D;fontColor=#1D3557;" parent="1" source="sx9_2WNkkRCyzuz7CPDC-7" edge="1">
                    <mxGeometry width="160" relative="1" as="geometry">
                        <mxPoint x="590" y="140" as="sourcePoint"/>
                        <mxPoint x="520" y="260" as="targetPoint"/>
                    </mxGeometry>
                </mxCell>
                <mxCell id="sx9_2WNkkRCyzuz7CPDC-27" value="Extends" style="edgeLabel;html=1;align=center;verticalAlign=middle;resizable=0;points=[];labelBackgroundColor=#F1FAEE;fontColor=#1D3557;" parent="sx9_2WNkkRCyzuz7CPDC-26" vertex="1" connectable="0">
                    <mxGeometry x="-0.3257" y="1" relative="1" as="geometry">
                        <mxPoint as="offset"/>
                    </mxGeometry>
                </mxCell>
                <mxCell id="sx9_2WNkkRCyzuz7CPDC-36" style="edgeStyle=orthogonalEdgeStyle;orthogonalLoop=1;jettySize=auto;html=1;entryX=0;entryY=0.5;entryDx=0;entryDy=0;curved=1;labelBackgroundColor=#F1FAEE;strokeColor=#457B9D;fontColor=#1D3557;" parent="1" source="sx9_2WNkkRCyzuz7CPDC-30" target="sx9_2WNkkRCyzuz7CPDC-22" edge="1">
                    <mxGeometry relative="1" as="geometry"/>
                </mxCell>
                <mxCell id="sx9_2WNkkRCyzuz7CPDC-37" style="edgeStyle=orthogonalEdgeStyle;orthogonalLoop=1;jettySize=auto;html=1;entryX=0;entryY=0.5;entryDx=0;entryDy=0;curved=1;labelBackgroundColor=#F1FAEE;strokeColor=#457B9D;fontColor=#1D3557;" parent="1" source="sx9_2WNkkRCyzuz7CPDC-30" target="sx9_2WNkkRCyzuz7CPDC-23" edge="1">
                    <mxGeometry relative="1" as="geometry"/>
                </mxCell>
                <mxCell id="sx9_2WNkkRCyzuz7CPDC-38" style="edgeStyle=orthogonalEdgeStyle;orthogonalLoop=1;jettySize=auto;html=1;entryX=0.003;entryY=0.677;entryDx=0;entryDy=0;entryPerimeter=0;curved=1;labelBackgroundColor=#F1FAEE;strokeColor=#457B9D;fontColor=#1D3557;" parent="1" source="sx9_2WNkkRCyzuz7CPDC-30" target="sx9_2WNkkRCyzuz7CPDC-24" edge="1">
                    <mxGeometry relative="1" as="geometry"/>
                </mxCell>
                <mxCell id="sx9_2WNkkRCyzuz7CPDC-30" value="Anmelden" style="ellipse;whiteSpace=wrap;html=1;fillColor=#A8DADC;strokeColor=#457B9D;fontColor=#1D3557;" parent="1" vertex="1">
                    <mxGeometry x="410" y="570" width="120" height="80" as="geometry"/>
                </mxCell>
                <mxCell id="sx9_2WNkkRCyzuz7CPDC-50" style="edgeStyle=orthogonalEdgeStyle;orthogonalLoop=1;jettySize=auto;html=1;curved=1;labelBackgroundColor=#F1FAEE;strokeColor=#457B9D;fontColor=#1D3557;" parent="1" source="sx9_2WNkkRCyzuz7CPDC-39" target="sx9_2WNkkRCyzuz7CPDC-40" edge="1">
                    <mxGeometry relative="1" as="geometry"/>
                </mxCell>
                <mxCell id="sx9_2WNkkRCyzuz7CPDC-39" value="Admin" style="shape=umlActor;verticalLabelPosition=bottom;verticalAlign=top;html=1;outlineConnect=0;fillColor=#A8DADC;strokeColor=#457B9D;fontColor=#1D3557;" parent="1" vertex="1">
                    <mxGeometry x="230" y="900" width="40" height="80" as="geometry"/>
                </mxCell>
                <mxCell id="sx9_2WNkkRCyzuz7CPDC-51" style="edgeStyle=orthogonalEdgeStyle;orthogonalLoop=1;jettySize=auto;html=1;entryX=0;entryY=0.5;entryDx=0;entryDy=0;curved=1;labelBackgroundColor=#F1FAEE;strokeColor=#457B9D;fontColor=#1D3557;" parent="1" source="sx9_2WNkkRCyzuz7CPDC-40" target="sx9_2WNkkRCyzuz7CPDC-41" edge="1">
                    <mxGeometry relative="1" as="geometry"/>
                </mxCell>
                <mxCell id="sx9_2WNkkRCyzuz7CPDC-52" style="edgeStyle=orthogonalEdgeStyle;orthogonalLoop=1;jettySize=auto;html=1;entryX=0;entryY=0.5;entryDx=0;entryDy=0;curved=1;labelBackgroundColor=#F1FAEE;strokeColor=#457B9D;fontColor=#1D3557;" parent="1" source="sx9_2WNkkRCyzuz7CPDC-40" target="sx9_2WNkkRCyzuz7CPDC-42" edge="1">
                    <mxGeometry relative="1" as="geometry"/>
                </mxCell>
                <mxCell id="sx9_2WNkkRCyzuz7CPDC-53" style="edgeStyle=orthogonalEdgeStyle;orthogonalLoop=1;jettySize=auto;html=1;entryX=0;entryY=0.5;entryDx=0;entryDy=0;curved=1;labelBackgroundColor=#F1FAEE;strokeColor=#457B9D;fontColor=#1D3557;" parent="1" source="sx9_2WNkkRCyzuz7CPDC-40" target="sx9_2WNkkRCyzuz7CPDC-45" edge="1">
                    <mxGeometry relative="1" as="geometry"/>
                </mxCell>
                <mxCell id="sx9_2WNkkRCyzuz7CPDC-40" value="Anmelden" style="ellipse;whiteSpace=wrap;html=1;fillColor=#A8DADC;strokeColor=#457B9D;fontColor=#1D3557;" parent="1" vertex="1">
                    <mxGeometry x="360" y="900" width="120" height="80" as="geometry"/>
                </mxCell>
                <mxCell id="sx9_2WNkkRCyzuz7CPDC-41" value="Neue Sprachen anlegen" style="ellipse;whiteSpace=wrap;html=1;fillColor=#A8DADC;strokeColor=#457B9D;fontColor=#1D3557;" parent="1" vertex="1">
                    <mxGeometry x="520" y="800" width="120" height="80" as="geometry"/>
                </mxCell>
                <mxCell id="sx9_2WNkkRCyzuz7CPDC-42" value="Suche nach Wörtern" style="ellipse;whiteSpace=wrap;html=1;fillColor=#A8DADC;strokeColor=#457B9D;fontColor=#1D3557;" parent="1" vertex="1">
                    <mxGeometry x="520" y="900" width="120" height="80" as="geometry"/>
                </mxCell>
                <mxCell id="sx9_2WNkkRCyzuz7CPDC-43" value="Suche nach deren Übersetzungen" style="ellipse;whiteSpace=wrap;html=1;fillColor=#A8DADC;strokeColor=#457B9D;fontColor=#1D3557;" parent="1" vertex="1">
                    <mxGeometry x="760" y="900" width="120" height="80" as="geometry"/>
                </mxCell>
                <mxCell id="sx9_2WNkkRCyzuz7CPDC-45" value="Zuweisung einer Sprache an einen Übersetzer" style="ellipse;whiteSpace=wrap;html=1;fillColor=#A8DADC;strokeColor=#457B9D;fontColor=#1D3557;" parent="1" vertex="1">
                    <mxGeometry x="520" y="1000" width="120" height="80" as="geometry"/>
                </mxCell>
                <mxCell id="sx9_2WNkkRCyzuz7CPDC-47" value="Include" style="endArrow=open;endSize=12;dashed=1;html=1;exitX=1;exitY=0.5;exitDx=0;exitDy=0;entryX=0;entryY=0.5;entryDx=0;entryDy=0;curved=1;labelBackgroundColor=#F1FAEE;strokeColor=#457B9D;fontColor=#1D3557;" parent="1" source="sx9_2WNkkRCyzuz7CPDC-42" target="sx9_2WNkkRCyzuz7CPDC-43" edge="1">
                    <mxGeometry width="160" relative="1" as="geometry">
                        <mxPoint x="740" y="850" as="sourcePoint"/>
                        <mxPoint x="900" y="850" as="targetPoint"/>
                        <mxPoint as="offset"/>
                    </mxGeometry>
                </mxCell>
                <mxCell id="sx9_2WNkkRCyzuz7CPDC-54" value="" style="endArrow=block;endSize=16;endFill=0;html=1;curved=1;labelBackgroundColor=#F1FAEE;fontColor=#1D3557;strokeColor=#0A0A0A;" parent="1" edge="1">
                    <mxGeometry width="160" relative="1" as="geometry">
                        <mxPoint x="280" y="550" as="sourcePoint"/>
                        <mxPoint x="280" y="330" as="targetPoint"/>
                    </mxGeometry>
                </mxCell>
            </root>
        </mxGraphModel>
    </diagram>
    <diagram id="a24T7AwCA7poDOv9IXqC" name="Aktivitätsdiagramm">
        <mxGraphModel dx="1116" dy="605" grid="1" gridSize="10" guides="1" tooltips="1" connect="1" arrows="1" fold="1" page="1" pageScale="1" pageWidth="1169" pageHeight="827" background="#FFFFFF" math="0" shadow="0">
            <root>
                <mxCell id="0oyUR4dgS2eo9P9nxT2M-0"/>
                <mxCell id="0oyUR4dgS2eo9P9nxT2M-1" parent="0oyUR4dgS2eo9P9nxT2M-0"/>
                <mxCell id="XfUsRE-6fYatTmZuSXRA-2" value="&lt;span style=&quot;background-color: rgb(18 , 18 , 18)&quot;&gt;Auflistung von unvollständig übersetzten Wörtern&lt;/span&gt;" style="shape=umlFrame;whiteSpace=wrap;html=1;width=230;height=60;fillColor=#050505;strokeWidth=1;strokeColor=#000000;" vertex="1" parent="0oyUR4dgS2eo9P9nxT2M-1">
                    <mxGeometry x="330" y="130" width="660" height="520" as="geometry"/>
                </mxCell>
            </root>
        </mxGraphModel>
    </diagram>
    <diagram id="ZH4X70LGSWkA0T2b_pML" name="Klassendiagramm">
        &#xa;        &#xa;&#xa;
        <mxGraphModel dx="1360" dy="834" grid="1" gridSize="10" guides="1" tooltips="1" connect="1" arrows="1" fold="1" page="1" pageScale="1" pageWidth="1169" pageHeight="827" math="0" shadow="0">
            &#xa;            &#xa;&#xa;
            <root>
                &#xa;                &#xa;&#xa;
                <mxCell id="p4V5GPbBJRA2JJwbldar-0"/>
                &#xa;                &#xa;&#xa;
                <mxCell id="p4V5GPbBJRA2JJwbldar-1" parent="p4V5GPbBJRA2JJwbldar-0"/>
                &#xa;                &#xa;&#xa;
            </root>
            &#xa;            &#xa;&#xa;
        </mxGraphModel>
        &#xa;        &#xa;&#xa;
    </diagram>
</mxfile>